<svg width="17" height="18" viewBox="0 0 17 18" fill="none" xmlns="http://www.w3.org/2000/svg">
<path d="M9.86013 17.192C8.58013 17.192 7.39613 16.984 6.30813 16.568C5.23613 16.136 4.30013 15.536 3.50013 14.768C2.71613 13.984 2.10013 13.072 1.65213 12.032C1.20413 10.992 0.980125 9.848 0.980125 8.6C0.980125 7.352 1.20413 6.208 1.65213 5.168C2.10013 4.128 2.72413 3.224 3.52413 2.456C4.32413 1.672 5.26013 1.072 6.33213 0.655999C7.42013 0.224 8.60413 0.0079999 9.88413 0.0079999C11.1801 0.0079999 12.3721 0.232 13.4601 0.68C14.5641 1.112 15.5001 1.76 16.2681 2.624L14.7081 4.136C14.0681 3.464 13.3481 2.968 12.5481 2.648C11.7481 2.312 10.8921 2.144 9.98013 2.144C9.03613 2.144 8.15613 2.304 7.34013 2.624C6.54013 2.944 5.84413 3.392 5.25213 3.968C4.66013 4.544 4.19613 5.232 3.86013 6.032C3.54013 6.816 3.38013 7.672 3.38013 8.6C3.38013 9.528 3.54013 10.392 3.86013 11.192C4.19613 11.976 4.66013 12.656 5.25213 13.232C5.84413 13.808 6.54013 14.256 7.34013 14.576C8.15613 14.896 9.03613 15.056 9.98013 15.056C10.8921 15.056 11.7481 14.896 12.5481 14.576C13.3481 14.24 14.0681 13.728 14.7081 13.04L16.2681 14.552C15.5001 15.416 14.5641 16.072 13.4601 16.52C12.3721 16.968 11.1721 17.192 9.86013 17.192Z" fill="white"/>
</svg>
